<svg width="20" height="20" viewBox="0 0 20 20" fill="none" xmlns="http://www.w3.org/2000/svg">
<path d="M15.875 4.09167C15.111 3.31994 14.201 2.70806 13.198 2.29171C12.1951 1.87536 11.1192 1.66288 10.0333 1.66667C5.48331 1.66667 1.77498 5.375 1.77498 9.925C1.77498 11.3833 2.15831 12.8 2.87498 14.05L1.70831 18.3333L6.08331 17.1833C7.29165 17.8417 8.64998 18.1917 10.0333 18.1917C14.5833 18.1917 18.2916 14.4833 18.2916 9.93333C18.2916 7.725 17.4333 5.65 15.875 4.09167ZM10.0333 16.7917C8.79998 16.7917 7.59165 16.4583 6.53331 15.8333L6.28331 15.6833L3.68331 16.3667L4.37498 13.8333L4.20831 13.575C3.5231 12.4808 3.15926 11.216 3.15831 9.925C3.15831 6.14167 6.24165 3.05833 10.025 3.05833C11.8583 3.05833 13.5833 3.775 14.875 5.075C15.5145 5.71164 16.0214 6.46889 16.3661 7.30286C16.7109 8.13682 16.8867 9.03093 16.8833 9.93333C16.9 13.7167 13.8166 16.7917 10.0333 16.7917ZM13.8 11.6583C13.5916 11.5583 12.575 11.0583 12.3916 10.9833C12.2 10.9167 12.0666 10.8833 11.925 11.0833C11.7833 11.2917 11.3916 11.7583 11.275 11.8917C11.1583 12.0333 11.0333 12.05 10.825 11.9417C10.6166 11.8417 9.94998 11.6167 9.16665 10.9167C8.54998 10.3667 8.14165 9.69167 8.01665 9.48333C7.89998 9.275 7.99998 9.16667 8.10831 9.05833C8.19998 8.96667 8.31665 8.81667 8.41665 8.7C8.51665 8.58333 8.55831 8.49167 8.62498 8.35833C8.69165 8.21667 8.65831 8.1 8.60831 8C8.55831 7.9 8.14165 6.88333 7.97498 6.46667C7.80831 6.06667 7.63331 6.11667 7.50831 6.10833H7.10831C6.96665 6.10833 6.74998 6.15833 6.55831 6.36667C6.37498 6.575 5.84165 7.075 5.84165 8.09167C5.84165 9.10833 6.58331 10.0917 6.68331 10.225C6.78331 10.3667 8.14165 12.45 10.2083 13.3417C10.7 13.5583 11.0833 13.6833 11.3833 13.775C11.875 13.9333 12.325 13.9083 12.6833 13.8583C13.0833 13.8 13.9083 13.3583 14.075 12.875C14.25 12.3917 14.25 11.9833 14.1916 11.8917C14.1333 11.8 14.0083 11.7583 13.8 11.6583Z" fill="#FFFFFF"/>
</svg>
