<svg width="60" height="62" viewBox="0 0 60 62" fill="none" xmlns="http://www.w3.org/2000/svg">
<path d="M15.5747 36.6811L8 55.319L16.7708 54.2226L22.2525 61L28.6312 42.4618M44.2791 36.6811L51.8538 55.319L43.083 54.2226L37.701 61L31.2226 42.4618" stroke="#FDBA74" stroke-width="2" stroke-miterlimit="10" stroke-linecap="round" stroke-linejoin="round"/>
<path d="M29.9269 33.8904C36.5323 33.8904 41.887 28.5356 41.887 21.9302C41.887 15.3248 36.5323 9.9701 29.9269 9.9701C23.3215 9.9701 17.9668 15.3248 17.9668 21.9302C17.9668 28.5356 23.3215 33.8904 29.9269 33.8904Z" stroke="#FDBA74" stroke-width="2" stroke-miterlimit="10" stroke-linecap="round" stroke-linejoin="round"/>
<path d="M29.9269 3.59136L34.412 1L37.5017 5.18605L42.5847 4.68771L43.6811 9.67109L48.5648 11.3654L47.5681 16.3488L51.3555 19.8372L48.3655 24.0232L50.4585 28.8073L45.9734 31.3987V36.4817L40.7907 37.0797L38.6977 41.7641L33.814 40.2691L29.9269 43.6578L26.0399 40.2691L21.1562 41.7641L19.0631 37.0797L13.8804 36.4817V31.3987L9.39536 28.8073L11.4884 24.0232L8.49835 19.8372L12.2857 16.3488L11.289 11.3654L16.1728 9.67109L17.2691 4.68771L22.3522 5.18605L25.4419 1L29.9269 3.59136Z" stroke="#FDBA74" stroke-width="2" stroke-miterlimit="10" stroke-linecap="round" stroke-linejoin="round"/>
</svg>
