<svg width="64" height="64" viewBox="0 0 64 64" fill="none" xmlns="http://www.w3.org/2000/svg">
<path d="M29.3746 35.625L16.2926 18.707C16.1404 18.5133 16.0644 18.2706 16.0791 18.0247C16.0938 17.7788 16.1981 17.5468 16.3723 17.3726C16.5465 17.1985 16.7784 17.0942 17.0243 17.0795C17.2702 17.0648 17.513 17.1408 17.7066 17.293L34.6246 30.375C35.4042 30.9883 35.9083 31.8862 36.0259 32.8711C36.1434 33.8561 35.8649 34.8474 35.2516 35.627C34.6383 36.4066 33.7404 36.9106 32.7555 37.0282C31.7705 37.1458 30.7792 36.8673 29.9996 36.254C29.7681 36.0687 29.5585 35.8577 29.3746 35.625Z" stroke="#FDBA74" stroke-width="3" stroke-miterlimit="10" stroke-linecap="round" stroke-linejoin="round"/>
<path d="M10.7866 10.787C5.8789 15.6948 2.82471 22.1525 2.14448 29.0598C1.46424 35.967 3.20005 42.8965 7.05613 48.6674C10.9122 54.4383 16.65 58.6936 23.2918 60.7083C29.9336 62.723 37.0686 62.3724 43.4809 59.7163C49.8932 57.0601 55.1861 52.2627 58.4579 46.1416C61.7296 40.0204 62.7777 32.9542 61.4235 26.1469C60.0694 19.3396 56.3968 13.2125 51.0315 8.80944C45.6663 4.4064 38.9403 1.99991 31.9996 2V15" stroke="#FDBA74" stroke-width="3" stroke-miterlimit="10" stroke-linecap="round" stroke-linejoin="round"/>
</svg>
