<svg width="40" height="40" viewBox="0 0 40 40" fill="none" xmlns="http://www.w3.org/2000/svg">
<path d="M19.5238 3.33333C10.5526 3.33333 3.25397 10.81 3.25397 20V26.905C3.25397 28.6117 4.71337 30 6.50794 30H8.13492C8.56642 30 8.98025 29.8244 9.28537 29.5118C9.59049 29.1993 9.7619 28.7754 9.7619 28.3333V19.7617C9.7619 19.3196 9.59049 18.8957 9.28537 18.5832C8.98025 18.2706 8.56642 18.095 8.13492 18.095H6.65762C7.56222 11.645 12.9801 6.66667 19.5238 6.66667C26.0675 6.66667 31.4854 11.645 32.39 18.095H30.9127C30.4812 18.095 30.0674 18.2706 29.7622 18.5832C29.4571 18.8957 29.2857 19.3196 29.2857 19.7617V30C29.2857 31.8383 27.8263 33.3333 26.0317 33.3333H22.7778V31.6667H16.2698V36.6667H26.0317C29.6209 36.6667 32.5397 33.6767 32.5397 30C34.3342 30 35.7936 28.6117 35.7936 26.905V20C35.7936 10.81 28.495 3.33333 19.5238 3.33333Z" fill="#FB923C"/>
</svg>
