<svg width="15" height="14" viewBox="0 0 15 14" fill="none" xmlns="http://www.w3.org/2000/svg">
<path d="M7.49997 11.4168L4.41664 13.7709C4.26386 13.8959 4.09719 13.9551 3.91664 13.9484C3.73608 13.9418 3.57636 13.8895 3.43747 13.7918C3.29858 13.6945 3.19108 13.5626 3.11497 13.3959C3.03886 13.2293 3.03525 13.0487 3.10414 12.8543L4.29164 9.00009L1.2708 6.85425C1.10414 6.74314 0.999971 6.59731 0.958304 6.41675C0.916638 6.2362 0.923582 6.06953 0.979138 5.91675C1.03469 5.76397 1.13192 5.62842 1.2708 5.51009C1.40969 5.39175 1.57636 5.33286 1.7708 5.33342H5.49997L6.7083 1.33342C6.77775 1.13897 6.88553 0.98953 7.03164 0.885086C7.17775 0.780642 7.33386 0.728697 7.49997 0.729252C7.66664 0.729252 7.82303 0.781475 7.96914 0.885919C8.11525 0.990364 8.22275 1.13953 8.29164 1.33342L9.49997 5.33342H13.2291C13.4236 5.33342 13.5902 5.39259 13.7291 5.51092C13.868 5.62925 13.9652 5.76453 14.0208 5.91675C14.0764 6.06953 14.0833 6.2362 14.0416 6.41675C14 6.59731 13.8958 6.74314 13.7291 6.85425L10.7083 9.00009L11.8958 12.8543C11.9652 13.0487 11.9619 13.2293 11.8858 13.3959C11.8097 13.5626 11.7019 13.6945 11.5625 13.7918C11.4236 13.889 11.2639 13.9412 11.0833 13.9484C10.9027 13.9556 10.7361 13.8965 10.5833 13.7709L7.49997 11.4168Z" fill="#94A3B8"/>
</svg>
