<svg width="14" height="14" viewBox="0 0 14 14" fill="none" xmlns="http://www.w3.org/2000/svg">
<path d="M6.99997 11.4168L3.91664 13.7709C3.76386 13.8959 3.59719 13.9551 3.41664 13.9484C3.23608 13.9418 3.07636 13.8895 2.93747 13.7918C2.79858 13.6945 2.69108 13.5626 2.61497 13.3959C2.53886 13.2293 2.53525 13.0487 2.60414 12.8543L3.79164 9.00009L0.770804 6.85425C0.604138 6.74314 0.499971 6.59731 0.458304 6.41675C0.416638 6.2362 0.423582 6.06953 0.479138 5.91675C0.534693 5.76397 0.631915 5.62842 0.770804 5.51009C0.909693 5.39175 1.07636 5.33286 1.2708 5.33342H4.99997L6.2083 1.33342C6.27775 1.13897 6.38553 0.98953 6.53164 0.885086C6.67775 0.780642 6.83386 0.728697 6.99997 0.729252C7.16664 0.729252 7.32303 0.781475 7.46914 0.885919C7.61525 0.990364 7.72275 1.13953 7.79164 1.33342L8.99997 5.33342H12.7291C12.9236 5.33342 13.0902 5.39259 13.2291 5.51092C13.368 5.62925 13.4652 5.76453 13.5208 5.91675C13.5764 6.06953 13.5833 6.2362 13.5416 6.41675C13.5 6.59731 13.3958 6.74314 13.2291 6.85425L10.2083 9.00009L11.3958 12.8543C11.4652 13.0487 11.4619 13.2293 11.3858 13.3959C11.3097 13.5626 11.2019 13.6945 11.0625 13.7918C10.9236 13.889 10.7639 13.9412 10.5833 13.9484C10.4027 13.9556 10.2361 13.8965 10.0833 13.7709L6.99997 11.4168Z" fill="#FDE047"/>
</svg>
