<svg width="56" height="56" viewBox="0 0 56 56" fill="none" xmlns="http://www.w3.org/2000/svg">
<path d="M43.0442 29.4188L34.0585 38.4044H30.4327V34.7786L39.4184 25.793L43.0442 29.4188ZM48.404 28.1576C48.404 28.6306 47.9311 29.1035 47.4582 29.5764L43.5171 33.5175L42.0983 32.0987L46.197 28L45.2512 27.0541L44.1477 28.1576L40.5219 24.5319L43.99 21.2214C44.3053 20.9061 44.9359 20.9061 45.4088 21.2214L47.6158 23.4284C47.9311 23.7436 47.9311 24.3742 47.6158 24.8471C47.3005 25.1624 46.9852 25.4777 46.9852 25.793C46.9852 26.1083 47.3005 26.4236 47.6158 26.7389C48.0887 27.2118 48.5617 27.6847 48.404 28.1576ZM16.7178 40.6114V15.3886H27.7528V23.2707H35.6349V25.6354L38.7878 22.4825V21.6943L29.3292 12.2357H16.7178C14.9837 12.2357 13.5649 13.6545 13.5649 15.3886V40.6114C13.5649 42.3455 14.9837 43.7643 16.7178 43.7643H35.6349C37.369 43.7643 38.7878 42.3455 38.7878 40.6114H16.7178ZM29.3292 36.0398C29.0139 36.0398 28.6987 36.1974 28.541 36.1974L27.7528 32.7293H25.3882L22.0777 35.4092L23.0235 31.1529H20.6589L19.0824 39.035H21.4471L26.0187 34.9363L26.9646 38.5621H28.541L29.3292 38.4044V36.0398Z" fill="#FB923C"/>
<rect x="1" y="1" width="54" height="54" rx="27" stroke="#FB923C" stroke-width="2"/>
</svg>
