<svg width="32" height="34" viewBox="0 0 32 34" fill="none" xmlns="http://www.w3.org/2000/svg">
<path d="M8.30659 20.0299L4.26672 29.9701L8.94446 29.3854L11.8681 33L15.27 23.113M23.6156 20.0299L27.6554 29.9701L22.9777 29.3854L20.1073 33L16.6521 23.113" stroke="#FB923C" stroke-width="2" stroke-miterlimit="10" stroke-linecap="round" stroke-linejoin="round"/>
<path d="M15.9611 18.5415C19.484 18.5415 22.3399 15.6857 22.3399 12.1628C22.3399 8.63991 19.484 5.78406 15.9611 5.78406C12.4383 5.78406 9.5824 8.63991 9.5824 12.1628C9.5824 15.6857 12.4383 18.5415 15.9611 18.5415Z" stroke="#FB923C" stroke-width="2" stroke-miterlimit="10" stroke-linecap="round" stroke-linejoin="round"/>
<path d="M15.961 2.38206L18.3531 1L20.0009 3.23256L22.7119 2.96678L23.2966 5.62458L25.9012 6.52824L25.3697 9.18604L27.3896 11.0465L25.7949 13.2791L26.9112 15.8306L24.5192 17.2126V19.9236L21.7551 20.2425L20.6388 22.7409L18.0341 21.9435L15.961 23.7508L13.888 21.9435L11.2833 22.7409L10.167 20.2425L7.4029 19.9236V17.2126L5.01088 15.8306L6.12715 13.2791L4.53247 11.0465L6.5524 9.18604L6.02084 6.52824L8.62549 5.62458L9.21021 2.96678L11.9212 3.23256L13.569 1L15.961 2.38206Z" stroke="#FB923C" stroke-width="2" stroke-miterlimit="10" stroke-linecap="round" stroke-linejoin="round"/>
</svg>
