<svg width="56" height="56" viewBox="0 0 56 56" fill="none" xmlns="http://www.w3.org/2000/svg">
<path d="M27.9777 12.1667C25.861 12.1667 23.9777 13.5 23.2777 15.5H12.9777V18.8333H16.2277L11.311 30.5C10.5277 33.8333 12.9777 35.5 17.1444 35.5C21.311 35.5 23.911 33.8333 22.9777 30.5L18.061 18.8333H23.261C23.811 20.25 24.8944 21.3333 26.311 21.8833V40.5H11.311V43.8333H44.6444V40.5H29.6444V21.8667C31.061 21.3333 32.1444 20.25 32.6777 18.8333H37.8944L32.9777 30.5C32.1944 33.8333 34.6444 35.5 38.811 35.5C42.9777 35.5 45.5777 33.8333 44.6444 30.5L39.7277 18.8333H42.9777V15.5H32.6944C31.9777 13.5 30.0944 12.1667 27.9777 12.1667ZM27.9777 15.5C28.4197 15.5 28.8437 15.6756 29.1562 15.9881C29.4688 16.3007 29.6444 16.7246 29.6444 17.1667C29.6444 17.6087 29.4688 18.0326 29.1562 18.3452C28.8437 18.6577 28.4197 18.8333 27.9777 18.8333C27.5357 18.8333 27.1118 18.6577 26.7992 18.3452C26.4866 18.0326 26.311 17.6087 26.311 17.1667C26.311 16.7246 26.4866 16.3007 26.7992 15.9881C27.1118 15.6756 27.5357 15.5 27.9777 15.5ZM17.1444 24.25L19.6444 30.5H14.6444L17.1444 24.25ZM38.811 24.25L41.311 30.5H36.311L38.811 24.25Z" fill="#FB923C"/>
<rect x="1" y="1" width="54" height="54" rx="27" stroke="#FB923C" stroke-width="2"/>
</svg>
