<svg width="56" height="56" viewBox="0 0 56 56" fill="none" xmlns="http://www.w3.org/2000/svg">
<path d="M27.7684 12.0794C28.5748 11.542 29.5201 11.2506 30.4891 11.2405C31.4582 11.2304 32.4093 11.5022 33.2267 12.0228L40.15 16.4294H43C43.4421 16.4294 43.866 16.605 44.1786 16.9176C44.4911 17.2301 44.6667 17.6541 44.6667 18.0961V33.0961C44.6667 33.5381 44.4911 33.962 44.1786 34.2746C43.866 34.5872 43.4421 34.7628 43 34.7628H40.4667C40.5202 35.5743 40.3485 36.3849 39.9706 37.1051C39.5927 37.8253 39.0232 38.4272 38.325 38.8444L29.8367 43.9377C29.3151 44.2504 28.718 44.4145 28.1098 44.4121C27.5017 44.4098 26.9058 44.2411 26.3867 43.9244C25.802 44.4411 25.0545 44.7362 24.2746 44.7584C23.4946 44.7807 22.7316 44.5286 22.1184 44.0461L13.5517 37.3144C12.9531 36.8444 12.5334 36.1837 12.3621 35.4421C12.1908 34.7006 12.2783 33.9227 12.61 33.2378C12.2121 32.9257 11.8903 32.5272 11.6691 32.0724C11.4479 31.6176 11.3331 31.1185 11.3334 30.6128V18.0961C11.3334 17.6541 11.509 17.2301 11.8215 16.9176C12.1341 16.605 12.558 16.4294 13 16.4294H21.245L27.7684 12.0794ZM14.955 30.8394L16.1084 29.8311C17.094 28.9689 18.3786 28.5278 19.6859 28.6026C20.9933 28.6774 22.2192 29.2621 23.1 30.2311L27.6034 35.1844C28.3096 35.9612 28.7534 36.9406 28.8718 37.9837C28.9903 39.0268 28.7774 40.0807 28.2634 40.9961L36.61 35.9878C36.8287 35.8567 36.9948 35.6535 37.0796 35.4132C37.1645 35.1728 37.1629 34.9104 37.075 34.6711L29.6967 24.3411C29.4947 24.058 29.2091 23.8452 28.88 23.7325C28.551 23.6198 28.1949 23.6129 27.8617 23.7128L23.7184 24.9544C22.8537 25.2138 21.935 25.2342 21.0597 25.0135C20.1843 24.7929 19.3851 24.3393 18.7467 23.7011L18.2584 23.2144C17.815 22.7719 17.5054 22.2132 17.3654 21.6026C17.2253 20.992 17.2605 20.3543 17.4667 19.7628H14.6667V30.6128L14.955 30.8394ZM31.4384 14.8361C31.1655 14.6623 30.848 14.5716 30.5246 14.5752C30.2011 14.5787 29.8857 14.6763 29.6167 14.8561L20.6167 20.8561L21.1034 21.3444C21.3164 21.5572 21.583 21.7083 21.875 21.7816C22.167 21.855 22.4734 21.8479 22.7617 21.7611L26.9034 20.5194C27.9028 20.2197 28.9708 20.2402 29.958 20.5779C30.9452 20.9156 31.802 21.5537 32.4084 22.4028L38.8584 31.4294H41.3334V19.7628H40.1517C39.5176 19.7627 38.8966 19.5817 38.3617 19.2411L31.4367 14.8344L31.4384 14.8361ZM18.3017 32.3378L15.6084 34.6944L24.175 41.4261L25.35 39.3728C25.5246 39.0669 25.5979 38.7137 25.5592 38.3636C25.5206 38.0136 25.3721 37.6848 25.135 37.4244L20.6334 32.4711C20.3398 32.1483 19.9313 31.9535 19.4956 31.9285C19.0599 31.9036 18.6302 32.0505 18.3017 32.3378Z" fill="#FB923C"/>
<rect x="1" y="1" width="54" height="54" rx="27" stroke="#FB923C" stroke-width="2"/>
</svg>
