<svg width="32" height="32" viewBox="0 0 32 32" fill="none" xmlns="http://www.w3.org/2000/svg">
<rect x="2.1333" y="17.4054" width="8.53333" height="14.5946" rx="1" stroke="#FB923C" stroke-width="4" stroke-linejoin="round" mask="url(#path-1-inside-1_262_406)"/>
<rect x="11.7333" y="12" width="8.53333" height="20" rx="1" stroke="#FB923C" stroke-width="4" stroke-linejoin="round" mask="url(#path-2-inside-2_262_406)"/>
<rect x="21.3333" y="14.7027" width="8.53333" height="17.2973" rx="1" stroke="#FB923C" stroke-width="4" stroke-linejoin="round" mask="url(#path-3-inside-3_262_406)"/>
<path d="M16.2222 3.23607L16.5184 4.14781C16.6523 4.55983 17.0363 4.83879 17.4695 4.83879H18.4281L17.6526 5.40228C17.3021 5.65693 17.1554 6.10829 17.2893 6.52032L17.5855 7.43206L16.81 6.86857C16.4595 6.61393 15.9849 6.61393 15.6344 6.86857L14.8588 7.43206L15.1551 6.52032C15.2889 6.10829 15.1423 5.65693 14.7918 5.40228L14.0162 4.83879H14.9749C15.4081 4.83879 15.7921 4.55983 15.9259 4.14781L16.2222 3.23607Z" stroke="#FB923C" stroke-width="2" stroke-linejoin="round"/>
</svg>
