<svg width="28" height="28" viewBox="0 0 28 28" fill="none" xmlns="http://www.w3.org/2000/svg">
<path d="M12.9499 15.45L7.7171 8.68278C7.65621 8.60532 7.62583 8.50822 7.6317 8.40987C7.63757 8.31151 7.67929 8.21872 7.74896 8.14904C7.81863 8.07937 7.91142 8.03765 8.00978 8.03178C8.10814 8.02591 8.20523 8.05629 8.2827 8.11718L15.0499 13.35C15.3617 13.5953 15.5634 13.9545 15.6104 14.3484C15.6574 14.7424 15.546 15.1389 15.3007 15.4508C15.0554 15.7626 14.6962 15.9642 14.3022 16.0113C13.9083 16.0583 13.5117 15.9469 13.1999 15.7016C13.1073 15.6275 13.0234 15.5431 12.9499 15.45Z" stroke="#FB923C" stroke-width="3" stroke-miterlimit="10" stroke-linecap="round" stroke-linejoin="round"/>
<path d="M5.51466 5.5148C3.55156 7.47793 2.32988 10.061 2.05779 12.8239C1.7857 15.5868 2.48002 18.3586 4.02245 20.6669C5.56489 22.9753 7.86 24.6774 10.5167 25.4833C13.1735 26.2892 16.0274 26.149 18.5923 25.0865C21.1573 24.024 23.2744 22.1051 24.5831 19.6566C25.8918 17.2082 26.3111 14.3817 25.7694 11.6588C25.2278 8.93586 23.7587 6.48499 21.6126 4.72378C19.4665 2.96256 16.7761 1.99996 13.9999 2V7.2" stroke="#FB923C" stroke-width="3" stroke-miterlimit="10" stroke-linecap="round" stroke-linejoin="round"/>
</svg>
