<svg width="56" height="56" viewBox="0 0 56 56" fill="none" xmlns="http://www.w3.org/2000/svg">
<path d="M35.4999 15C33.8999 15 32.3333 15.4167 30.9499 16.15L27.9999 25H32.9999L27.9999 41.6667L29.6666 26.6667H24.6666L27.2333 17.6833C25.4499 16.0167 23.0166 15 20.4999 15C15.3666 15 11.3333 19.0333 11.3333 24.1667C11.3333 31.05 18.2666 36.1333 27.9999 45C37.1166 36.7667 44.6666 31.2333 44.6666 24.1667C44.6666 19.0333 40.6333 15 35.4999 15ZM25.0666 37.8833C18.7499 32.2333 14.6666 28.3333 14.6666 24.1667C14.6666 20.9 17.2333 18.3333 20.4999 18.3333C21.4833 18.3333 22.4833 18.5833 23.3833 19.0333L20.2499 30H25.9499L25.0666 37.8833ZM33.2166 35.8833L37.4833 21.6667H32.6333L33.6499 18.6333C34.2499 18.4333 34.8833 18.3333 35.4999 18.3333C38.7666 18.3333 41.3333 20.9 41.3333 24.1667C41.3333 27.85 37.9666 31.55 33.2166 35.8833Z" fill="#FB923C"/>
<rect x="1" y="1" width="54" height="54" rx="27" stroke="#FB923C" stroke-width="2"/>
</svg>
