<svg width="24" height="24" viewBox="0 0 24 24" fill="none" xmlns="http://www.w3.org/2000/svg">
<path fill-rule="evenodd" clip-rule="evenodd" d="M12 24C6.3432 24 3.5148 24 1.7568 22.242C0 20.4864 0 17.6568 0 12C0 6.3432 0 3.5148 1.7568 1.7568C3.516 0 6.3432 0 12 0C17.6568 0 20.4852 0 22.242 1.7568C24 3.516 24 6.3432 24 12C24 17.6568 24 20.4852 22.242 22.242C20.4864 24 17.6568 24 12 24ZM14.9688 7.7028C15.1537 7.85369 15.271 8.07181 15.2951 8.30922C15.3192 8.54662 15.248 8.78387 15.0972 8.9688L8.2404 17.3688C8.15599 17.4722 8.04965 17.5555 7.92906 17.6128C7.80848 17.67 7.67668 17.6997 7.5432 17.6997C7.40973 17.6997 7.27792 17.67 7.15734 17.6128C7.03675 17.5555 6.93041 17.4722 6.846 17.3688L4.1028 14.0088C3.95802 13.8233 3.89165 13.5884 3.91793 13.3546C3.94421 13.1207 4.06103 12.9065 4.24337 12.7577C4.42571 12.609 4.65906 12.5375 4.89343 12.5587C5.1278 12.58 5.34453 12.6921 5.4972 12.8712L7.5432 15.3768L13.7028 7.8312C13.8537 7.64634 14.0718 7.52897 14.3092 7.50489C14.5466 7.48081 14.7839 7.552 14.9688 7.7028ZM19.7688 7.7028C19.9537 7.85369 20.071 8.07181 20.0951 8.30922C20.1192 8.54662 20.048 8.78387 19.8972 8.9688L13.0404 17.3688C12.9509 17.4787 12.8368 17.5659 12.7072 17.6234C12.5777 17.6808 12.4364 17.7069 12.2949 17.6994C12.1534 17.6919 12.0156 17.6511 11.8929 17.5803C11.7701 17.5095 11.6658 17.4107 11.5884 17.292L11.2464 16.7664C11.1436 16.6086 11.0929 16.4226 11.1013 16.2345C11.1098 16.0463 11.1771 15.8656 11.2937 15.7178C11.4103 15.5699 11.5704 15.4623 11.7513 15.4102C11.9323 15.3581 12.125 15.364 12.3024 15.4272L18.5028 7.8312C18.6537 7.64634 18.8718 7.52897 19.1092 7.50489C19.3466 7.48081 19.5839 7.552 19.7688 7.7028Z" fill="#FB923C"/>
</svg>
