<svg width="25" height="25" viewBox="0 0 25 25" fill="none" xmlns="http://www.w3.org/2000/svg">
<path d="M18.1683 6.82804C17.4312 6.08718 16.5532 5.49978 15.5855 5.10009C14.6179 4.70039 13.5799 4.49642 12.5322 4.50005C8.14221 4.50005 4.56432 8.06004 4.56432 12.428C4.56432 13.828 4.93417 15.188 5.62563 16.388L4.5 20.5L8.72111 19.396C9.88693 20.028 11.1975 20.364 12.5322 20.364C16.9221 20.364 20.5 16.804 20.5 12.436C20.5 10.316 19.6719 8.32404 18.1683 6.82804ZM12.5322 19.02C11.3422 19.02 10.1764 18.7 9.15528 18.1L8.91407 17.956L6.40553 18.612L7.07286 16.18L6.91206 15.932C6.25095 14.8816 5.89991 13.6674 5.89899 12.428C5.89899 8.79603 8.87387 5.83604 12.5241 5.83604C14.293 5.83604 15.9573 6.52404 17.2035 7.77204C17.8206 8.38321 18.3096 9.11016 18.6422 9.91077C18.9748 10.7114 19.1444 11.5697 19.1412 12.436C19.1573 16.068 16.1824 19.02 12.5322 19.02ZM16.1663 14.092C15.9653 13.996 14.9844 13.516 14.8075 13.444C14.6226 13.38 14.494 13.348 14.3573 13.54C14.2206 13.74 13.8427 14.188 13.7301 14.316C13.6176 14.452 13.497 14.468 13.296 14.364C13.095 14.268 12.4518 14.052 11.696 13.38C11.101 12.852 10.707 12.204 10.5864 12.004C10.4739 11.804 10.5704 11.7 10.6749 11.596C10.7633 11.508 10.8759 11.364 10.9724 11.252C11.0688 11.14 11.109 11.052 11.1734 10.924C11.2377 10.788 11.2055 10.676 11.1573 10.58C11.109 10.484 10.707 9.50803 10.5462 9.10803C10.3854 8.72404 10.2166 8.77203 10.096 8.76403H9.71005C9.57337 8.76403 9.36432 8.81203 9.1794 9.01203C9.00251 9.21203 8.48794 9.69203 8.48794 10.668C8.48794 11.644 9.20352 12.588 9.3 12.716C9.39648 12.852 10.707 14.852 12.701 15.708C13.1754 15.916 13.5452 16.036 13.8347 16.124C14.309 16.276 14.7432 16.252 15.0889 16.204C15.4749 16.148 16.2709 15.724 16.4317 15.26C16.6005 14.796 16.6005 14.404 16.5442 14.316C16.4879 14.228 16.3673 14.188 16.1663 14.092Z" fill="#F8FAFC"/>
</svg>
